<svg width="16"
  height="16"
  viewBox="0 0 16 16"
  fill="black"
  xmlns="http://www.w3.org/2000/svg">
  <g>
    <path d="M4.24839 9.25159C4.24839 10.16 3.50516 10.9032 2.59677 10.9032H0.160645V4.70965H2.43161C3.34 4.70965 4.08323 5.44462 4.08323 6.36126C4.08323 6.98062 3.72813 7.50913 3.23265 7.76513C3.852 8.02113 4.24839 8.56617 4.24839 9.25159ZM3.40606 6.40255C3.40606 5.7832 2.99316 5.28771 2.37381 5.28771H0.82129V7.51739H2.37381C2.99316 7.51739 3.40606 7.02191 3.40606 6.40255ZM3.57123 9.21029C3.57123 8.59094 3.15832 8.09546 2.53897 8.09546H0.82129V10.3251H2.53897C3.15832 10.3251 3.57123 9.82965 3.57123 9.21029ZM7.86542 4.70965L10.2603 10.9032H9.56658L8.93071 9.21855H6.07342L5.43755 10.9032H4.74387L7.13871 4.70965H7.86542ZM6.29639 8.64049H8.716L7.50206 5.44462L6.29639 8.64049ZM13.5509 4.70965L15.9457 10.9032H15.2521L14.6162 9.21855H11.7589L11.123 10.9032H10.4294L12.8242 4.70965H13.5509ZM11.9819 8.64049H14.4015L13.1875 5.44462L11.9819 8.64049Z" />
    <path d="M0.160645 10.9032H0.0961291V10.9677H0.160645V10.9032ZM0.160645 4.70965V4.64513H0.0961291V4.70965H0.160645ZM3.23265 7.76513L3.20303 7.70782L3.0795 7.77164L3.208 7.82476L3.23265 7.76513ZM0.82129 5.28771V5.2232H0.756774V5.28771H0.82129ZM0.82129 7.51739H0.756774V7.58191H0.82129V7.51739ZM0.82129 8.09546V8.03094H0.756774V8.09546H0.82129ZM0.82129 10.3251H0.756774V10.3896H0.82129V10.3251ZM4.18387 9.25159C4.18387 10.1243 3.46953 10.8387 2.59677 10.8387V10.9677C3.54079 10.9677 4.3129 10.1956 4.3129 9.25159H4.18387ZM2.59677 10.8387H0.160645V10.9677H2.59677V10.8387ZM0.225161 10.9032V4.70965H0.0961291V10.9032H0.225161ZM0.160645 4.77417H2.43161V4.64513H0.160645V4.77417ZM2.43161 4.77417C3.30458 4.77417 4.01871 5.48046 4.01871 6.36126H4.14774C4.14774 5.40878 3.37542 4.64513 2.43161 4.64513V4.77417ZM4.01871 6.36126C4.01871 6.9554 3.67806 7.46238 3.20303 7.70782L3.26226 7.82245C3.7782 7.55588 4.14774 7.00583 4.14774 6.36126H4.01871ZM3.208 7.82476C3.80497 8.0715 4.18387 8.59412 4.18387 9.25159H4.3129C4.3129 8.53821 3.89903 7.97076 3.25729 7.70551L3.208 7.82476ZM3.47058 6.40255C3.47058 5.75431 3.03518 5.2232 2.37381 5.2232V5.35223C2.95114 5.35223 3.34155 5.81209 3.34155 6.40255H3.47058ZM2.37381 5.2232H0.82129V5.35223H2.37381V5.2232ZM0.756774 5.28771V7.51739H0.885807V5.28771H0.756774ZM0.82129 7.58191H2.37381V7.45288H0.82129V7.58191ZM2.37381 7.58191C3.03518 7.58191 3.47058 7.0508 3.47058 6.40255H3.34155C3.34155 6.99302 2.95114 7.45288 2.37381 7.45288V7.58191ZM3.63574 9.21029C3.63574 8.56205 3.20034 8.03094 2.53897 8.03094V8.15997C3.1163 8.15997 3.50671 8.61983 3.50671 9.21029H3.63574ZM2.53897 8.03094H0.82129V8.15997H2.53897V8.03094ZM0.756774 8.09546V10.3251H0.885807V8.09546H0.756774ZM0.82129 10.3896H2.53897V10.2606H0.82129V10.3896ZM2.53897 10.3896C3.20034 10.3896 3.63574 9.85854 3.63574 9.21029H3.50671C3.50671 9.80076 3.1163 10.2606 2.53897 10.2606V10.3896ZM7.86542 4.70965L7.92559 4.68638L7.90964 4.64513H7.86542V4.70965ZM10.2603 10.9032V10.9677H10.3544L10.3204 10.8799L10.2603 10.9032ZM9.56658 10.9032L9.50622 10.926L9.52197 10.9677H9.56658V10.9032ZM8.93071 9.21855L8.99107 9.19577L8.97532 9.15404H8.93071V9.21855ZM6.07342 9.21855V9.15404H6.02881L6.01306 9.19577L6.07342 9.21855ZM5.43755 10.9032V10.9677H5.48216L5.49791 10.926L5.43755 10.9032ZM4.74387 10.9032L4.6837 10.8799L4.64975 10.9677H4.74387V10.9032ZM7.13871 4.70965V4.64513H7.09448L7.07854 4.68638L7.13871 4.70965ZM6.29639 8.64049L6.23602 8.61772L6.20309 8.705H6.29639V8.64049ZM8.716 8.64049V8.705H8.80952L8.77631 8.61758L8.716 8.64049ZM7.50206 5.44462L7.56238 5.42171L7.50186 5.26239L7.4417 5.42184L7.50206 5.44462ZM7.80524 4.73292L10.2001 10.9265L10.3204 10.8799L7.92559 4.68638L7.80524 4.73292ZM10.2603 10.8387H9.56658V10.9677H10.2603V10.8387ZM9.62694 10.8804L8.99107 9.19577L8.87035 9.24134L9.50622 10.926L9.62694 10.8804ZM8.93071 9.15404H6.07342V9.28307H8.93071V9.15404ZM6.01306 9.19577L5.37719 10.8804L5.49791 10.926L6.13378 9.24134L6.01306 9.19577ZM5.43755 10.8387H4.74387V10.9677H5.43755V10.8387ZM4.80405 10.9265L7.19888 4.73292L7.07854 4.68638L4.6837 10.8799L4.80405 10.9265ZM7.13871 4.77417H7.86542V4.64513H7.13871V4.77417ZM6.29639 8.705H8.716V8.57597H6.29639V8.705ZM8.77631 8.61758L7.56238 5.42171L7.44175 5.46753L8.65569 8.6634L8.77631 8.61758ZM7.4417 5.42184L6.23602 8.61772L6.35675 8.66326L7.56243 5.46739L7.4417 5.42184ZM13.5509 4.70965L13.6111 4.68638L13.5951 4.64513H13.5509V4.70965ZM15.9457 10.9032V10.9677H16.0399L16.0059 10.8799L15.9457 10.9032ZM15.2521 10.9032L15.1917 10.926L15.2075 10.9677H15.2521V10.9032ZM14.6162 9.21855L14.6766 9.19577L14.6608 9.15404H14.6162V9.21855ZM11.7589 9.21855V9.15404H11.7143L11.6985 9.19577L11.7589 9.21855ZM11.123 10.9032V10.9677H11.1676L11.1834 10.926L11.123 10.9032ZM10.4294 10.9032L10.3692 10.8799L10.3352 10.9677H10.4294V10.9032ZM12.8242 4.70965V4.64513H12.78L12.764 4.68638L12.8242 4.70965ZM11.9819 8.64049L11.9215 8.61772L11.8886 8.705H11.9819V8.64049ZM14.4015 8.64049V8.705H14.495L14.4618 8.61758L14.4015 8.64049ZM13.1875 5.44462L13.2479 5.42171L13.1873 5.26239L13.1272 5.42184L13.1875 5.44462ZM13.4907 4.73292L15.8856 10.9265L16.0059 10.8799L13.6111 4.68638L13.4907 4.73292ZM15.9457 10.8387H15.2521V10.9677H15.9457V10.8387ZM15.3124 10.8804L14.6766 9.19577L14.5558 9.24134L15.1917 10.926L15.3124 10.8804ZM14.6162 9.15404H11.7589V9.28307H14.6162V9.15404ZM11.6985 9.19577L11.0627 10.8804L11.1834 10.926L11.8193 9.24134L11.6985 9.19577ZM11.123 10.8387H10.4294V10.9677H11.123V10.8387ZM10.4895 10.9265L12.8844 4.73292L12.764 4.68638L10.3692 10.8799L10.4895 10.9265ZM12.8242 4.77417H13.5509V4.64513H12.8242V4.77417ZM11.9819 8.705H14.4015V8.57597H11.9819V8.705ZM14.4618 8.61758L13.2479 5.42171L13.1272 5.46753L14.3412 8.6634L14.4618 8.61758ZM13.1272 5.42184L11.9215 8.61772L12.0422 8.66326L13.2479 5.46739L13.1272 5.42184Z" />
  </g>
</svg>
